<svg width="21" height="21" viewBox="0 0 21 21" fill="none" xmlns="http://www.w3.org/2000/svg">
<path d="M10.5 0C4.71033 0 0 4.7102 0 10.4999C0 16.2897 4.71033 21 10.5 21C16.2897 21 21 16.2897 21 10.4999C21 4.7102 16.2898 0 10.5 0ZM16.5293 8.72642L9.93267 15.323C9.65218 15.6035 9.27933 15.7579 8.8827 15.7579C8.48607 15.7579 8.11322 15.6035 7.83274 15.323L4.47072 11.961C4.19023 11.6805 4.03574 11.3077 4.03574 10.911C4.03574 10.5143 4.19023 10.1414 4.47072 9.86096C4.75109 9.58047 5.12394 9.42599 5.52068 9.42599C5.91731 9.42599 6.29027 9.58047 6.57065 9.86107L8.88259 12.1729L14.4291 6.62638C14.7096 6.3459 15.0825 6.19152 15.4791 6.19152C15.8757 6.19152 16.2486 6.3459 16.5291 6.62638C17.1082 7.20554 17.1082 8.14747 16.5293 8.72642Z" fill="#0057FF"/>
</svg>
