<svg width="78" height="12" viewBox="0 0 78 12" fill="none" xmlns="http://www.w3.org/2000/svg">
<path d="M22 0L23.3471 4.1459H27.7063L24.1796 6.7082L25.5267 10.8541L22 8.2918L18.4733 10.8541L19.8204 6.7082L16.2937 4.1459H20.6529L22 0Z" fill="#F9BF4F"/>
<path d="M39 0L40.3471 4.1459H44.7063L41.1796 6.7082L42.5267 10.8541L39 8.2918L35.4733 10.8541L36.8204 6.7082L33.2937 4.1459H37.6529L39 0Z" fill="#F9BF4F"/>
<path d="M6 0L7.34708 4.1459H11.7063L8.17963 6.7082L9.52671 10.8541L6 8.2918L2.47329 10.8541L3.82037 6.7082L0.293661 4.1459H4.65292L6 0Z" fill="#F9BF4F"/>
<path d="M55 0L56.3471 4.1459H60.7063L57.1796 6.7082L58.5267 10.8541L55 8.2918L51.4733 10.8541L52.8204 6.7082L49.2937 4.1459H53.6529L55 0Z" fill="#F9BF4F"/>
<path d="M72 0L73.3471 4.1459H77.7063L74.1796 6.7082L75.5267 10.8541L72 8.2918L68.4733 10.8541L69.8204 6.7082L66.2937 4.1459H70.6529L72 0Z" fill="#F9BF4F"/>
</svg>
