<svg width="172" height="172" viewBox="0 0 172 172" fill="none" xmlns="http://www.w3.org/2000/svg">
<g clip-path="url(#clip0)">
<path d="M147.155 60.8397C148.546 60.8397 149.674 59.712 149.674 58.3202V30.0158C149.674 28.749 148.926 27.5991 147.767 27.0844L87.3007 0.275595C86.4737 -0.0919209 85.5256 -0.0915849 84.7002 0.274923L24.2312 27.0847C23.0732 27.5987 22.3254 28.749 22.3254 30.0158V82.3515C22.3254 101.913 28.2308 120.739 39.4028 136.796C50.5747 152.853 66.175 164.934 84.5165 171.734C85.4729 172.088 86.5271 172.088 87.4838 171.733C105.825 164.934 121.425 152.853 132.597 136.796C143.769 120.739 149.675 101.912 149.675 82.3515V70.0784C149.675 68.6866 148.547 67.5588 147.155 67.5588C145.764 67.5588 144.636 68.6866 144.636 70.0784V82.3515C144.636 119.83 121.083 153.774 86.0003 166.909C50.9143 153.776 27.3641 119.832 27.3641 82.3515V31.2077L85.9996 5.21085L144.635 31.2077V58.3202C144.635 59.712 145.763 60.8397 147.155 60.8397Z" fill="#0057FF"/>
<path d="M98.8462 84.3423C99.8302 85.3259 101.426 85.3259 102.409 84.3423L110.833 75.919C112.392 74.3596 112.392 71.8229 110.833 70.2638L104.015 63.4453C102.456 61.8862 99.9189 61.8866 98.3595 63.4453L79.6992 82.106L71.4395 73.8459C69.8804 72.2869 67.3434 72.2865 65.7843 73.8459L58.9658 80.6645C57.407 82.2239 57.4073 84.7606 58.9661 86.3196L76.8716 104.225C78.4313 105.785 80.9673 105.784 82.5267 104.225L93.9479 92.8039C94.9319 91.8196 94.9319 90.2246 93.9479 89.2406C92.964 88.257 91.3686 88.257 90.385 89.2406L79.6992 99.9268L63.2647 83.4921L68.6119 78.1449L76.8716 86.405C78.431 87.9644 80.9676 87.963 82.5267 86.405L101.187 67.7443L106.534 73.0914L98.8459 80.7794C97.862 81.7633 97.8619 83.3584 98.8462 84.3423Z" fill="#0057FF"/>
<path d="M85.9997 161.813C87.3911 161.813 88.5192 160.685 88.5192 159.293V123.017C109.649 121.712 126.439 104.108 126.439 82.6554C126.439 61.2031 109.649 43.5983 88.5192 42.2931V12.6567C88.5192 11.2649 87.3911 10.1372 85.9997 10.1372C84.6082 10.1372 83.4801 11.2649 83.4801 12.6567V42.2948C77.8549 42.6472 72.3257 44.1737 67.3524 46.7625C66.1182 47.4048 65.6382 48.9262 66.2808 50.1605C66.9238 51.3954 68.4453 51.8751 69.6791 51.2318C74.005 48.98 78.6369 47.6755 83.4801 47.3409V59.4606C83.4801 60.8523 84.6082 61.9801 85.9997 61.9801C87.3911 61.9801 88.5192 60.8523 88.5192 59.4606V47.343C106.868 48.6393 121.4 63.9819 121.4 82.655C121.4 101.328 106.868 116.67 88.5192 117.967V111.937C88.5192 110.545 87.3911 109.417 85.9997 109.417C84.6082 109.417 83.4801 110.545 83.4801 111.937V117.967C65.1312 116.67 50.5989 101.328 50.5989 82.655C50.5989 73.3223 54.1991 64.5151 60.7365 57.8558C61.7114 56.8628 61.6966 55.2677 60.7036 54.2932C59.7105 53.3183 58.1152 53.3331 57.1406 54.3261C49.6727 61.9334 45.5598 71.994 45.5598 82.6554C45.5598 104.108 62.3507 121.712 83.4801 123.017V159.293C83.4801 160.685 84.6082 161.813 85.9997 161.813Z" fill="#0057FF"/>
</g>
<defs>
<clipPath id="clip0">
<rect width="172" height="172" fill="white"/>
</clipPath>
</defs>
</svg>
